# Made using Asset Forge (www.assetforge.io) version 1.3 

mtllib track_4.mtl 

g corner_hill_13

v 0.5 0 0.5
v 0.5 0 -0.5
v -0.5 0 0.5
v 0.4 0 -0.5
v -0.5 0 0.4
v -0.5 0 -0.5
v 0.5 0.2 0.5
v -0.5 0.2 0.5
v 0.5 0.2 -0.5
v -0.5 0.1 0.4
v -0.04999999 0.1 0.4
v -0.5 0.2 0.4
v 0.175 0.2 0.4
v 0.4 0.2 0.4
v 0.4 0.2 0.175
v 0.4 0.2 -0.5
v 0.4 0.1 -0.5
v 0.4 0.1 -0.05
v -0.5 0.1 -0.5
v 0.4 0.3 0.4
vn 0 -1 0
vn 0 0 1
vn 1 0 0
vn 0 0 -1
vn 0 1 0
vn -1 0 0
vn -0.3762883 0.8466488 -0.3762883
vn -0.3762883 0.8466488 -0.3762883
vt -0.5 -0.5
vt -0.5 0.5
vt 0.5 -0.5
vt -0.4 0.5
vt 0.5 -0.4
vt 0.5 0.5
vt 0.5 0
vt -0.5 0
vt 0.5 0.2
vt -0.5 0.2
vt 0.5 0.1
vt 0.04999999 0.1
vt -0.175 0.2
vt -0.4 0.4
vt -0.4 0.175
vt -0.4 -0.5
vt -0.175 0.4
vt 0.5 0.4
vt 0.4 0
vt 0.4 0.1
vt 0.4 0.2
vt -0.4 0
vt -0.4 0.1
vt -0.4 0.2
vt -0.5 0.1
vt -0.05 0.1
vt 0.175 0.2
vt -0.4 -0.05
vt 0.04999999 0.4
vt -0.4 0.3
vt -0.175 0.2
vt 0.175 0.2
vt 0.4 0.3

usemtl golfBorder (Instance) (Instance)
usemap golfBorder (Instance) (Instance)
f 3/3/1 2/2/1 1/1/1
f 2/2/1 3/3/1 4/4/1
f 4/4/1 3/3/1 5/5/1
f 4/4/1 5/5/1 6/6/1
f 7/9/2 3/8/2 1/7/2
f 3/8/2 7/9/2 8/10/2
f 9/9/3 1/8/3 2/7/3
f 1/8/3 9/9/3 7/10/3
f 12/9/4 11/12/4 10/11/4
f 11/12/4 12/9/4 13/13/4
f 9/1/5 15/15/5 14/14/5
f 15/15/5 9/1/5 16/16/5
f 14/14/5 7/2/5 9/1/5
f 7/2/5 14/14/5 8/6/5
f 8/6/5 14/14/5 13/17/5
f 8/6/5 13/17/5 12/18/5
f 3/7/6 10/20/6 5/19/6
f 10/20/6 3/7/6 12/21/6
f 12/21/6 3/7/6 8/9/6
f 17/23/4 2/8/4 4/22/4
f 2/8/4 17/23/4 9/10/4
f 9/10/4 17/23/4 16/24/4
f 18/26/6 16/10/6 17/25/6
f 16/10/6 18/26/6 15/27/6

usemtl golfGreen (Instance) (Instance)
usemap golfGreen (Instance) (Instance)
f 19/11/4 4/22/4 6/7/4
f 4/22/4 19/11/4 17/23/4
f 5/19/6 19/25/6 6/8/6
f 19/25/6 5/19/6 10/20/6
f 17/16/5 11/29/5 18/28/5
f 11/29/5 17/16/5 19/3/5
f 11/29/5 19/3/5 10/18/5
f 14/24/3 15/31/3 20/30/3
f 20/33/2 13/32/2 14/21/2
f 15/15/7 13/17/7 20/14/7
f 13/17/7 15/15/7 18/28/8
f 13/17/7 18/28/8 11/29/8
